<svg width="31" height="44" viewBox="0 0 31 44" fill="none" xmlns="http://www.w3.org/2000/svg">
<path d="M30.0872 0.0379639H0.364692C0.197882 0.0379639 0.0614014 0.261278 0.0614014 0.534217V4.50424C0.0614014 4.77718 0.197882 5.0005 0.364692 5.0005H30.0872C30.254 5.0005 30.3905 4.77718 30.3905 4.50424V0.534217C30.3905 0.261278 30.254 0.0379639 30.0872 0.0379639ZM30.0872 38.7457H0.364692C0.197882 38.7457 0.0614014 38.969 0.0614014 39.242V43.212C0.0614014 43.485 0.197882 43.7083 0.364692 43.7083H30.0872C30.254 43.7083 30.3905 43.485 30.3905 43.212V39.242C30.3905 38.969 30.254 38.7457 30.0872 38.7457ZM30.0872 19.3918H0.364692C0.197882 19.3918 0.0614014 19.6152 0.0614014 19.8881V23.8581C0.0614014 24.1311 0.197882 24.3544 0.364692 24.3544H30.0872C30.254 24.3544 30.3905 24.1311 30.3905 23.8581V19.8881C30.3905 19.6152 30.254 19.3918 30.0872 19.3918Z" fill="#ECB074"/>
</svg>
