<svg width="29" height="31" viewBox="0 0 29 31" fill="none" xmlns="http://www.w3.org/2000/svg">
<path fill-rule="evenodd" clip-rule="evenodd" d="M9.07647 0.299358C10.5431 0.225815 11.0107 0.209473 14.7467 0.209473C18.4826 0.209473 18.9502 0.227177 20.4156 0.299358C21.881 0.371538 22.8812 0.626213 23.7564 0.995286C24.6729 1.37253 25.5044 1.96223 26.1921 2.72489C26.8922 3.47257 27.4324 4.37687 27.7775 5.3765C28.1175 6.32983 28.3501 7.41935 28.4176 9.01277C28.4851 10.613 28.5001 11.1223 28.5001 15.1903C28.5001 19.2597 28.4839 19.769 28.4176 21.3665C28.3513 22.9599 28.1175 24.0495 27.7775 25.0028C27.4324 26.0025 26.8913 26.9083 26.1921 27.6571C25.5044 28.4198 24.6729 29.0081 23.7564 29.384C22.8812 29.7544 21.881 30.0077 20.4181 30.0813C18.9502 30.1548 18.4826 30.1712 14.7467 30.1712C11.0107 30.1712 10.5431 30.1535 9.07647 30.0813C7.6136 30.0091 6.61335 29.7544 5.73813 29.384C4.8203 29.0081 3.98871 28.4188 3.30126 27.6571C2.60156 26.909 2.06009 26.0036 1.71461 25.0041C1.37578 24.0508 1.14322 22.9613 1.0757 21.3679C1.00818 19.7677 0.993179 19.2583 0.993179 15.1903C0.993179 11.121 1.00943 10.6116 1.0757 9.01549C1.14197 7.41935 1.37578 6.32983 1.71461 5.3765C2.0606 4.37698 2.60248 3.47164 3.30251 2.72353C3.98899 1.96155 4.81974 1.37177 5.73688 0.995286C6.6121 0.626213 7.61235 0.3729 9.07522 0.299358H9.07647ZM20.3043 2.99591C18.8539 2.92373 18.4188 2.90875 14.7467 2.90875C11.0745 2.90875 10.6394 2.92373 9.189 2.99591C7.84741 3.06264 7.11973 3.30642 6.63461 3.51207C5.99319 3.78445 5.53433 4.10722 5.05296 4.63155C4.59665 5.11509 4.24548 5.70374 4.0252 6.35435C3.8364 6.88276 3.61259 7.67538 3.55133 9.1367C3.48506 10.7165 3.47131 11.1904 3.47131 15.1903C3.47131 19.1902 3.48506 19.6642 3.55133 21.244C3.61259 22.7053 3.8364 23.4979 4.0252 24.0263C4.24525 24.6759 4.59659 25.2656 5.05296 25.7491C5.49682 26.2462 6.03821 26.6289 6.63461 26.8686C7.11973 27.0742 7.84741 27.318 9.189 27.3847C10.6394 27.4569 11.0732 27.4719 14.7467 27.4719C18.4201 27.4719 18.8539 27.4569 20.3043 27.3847C21.6459 27.318 22.3736 27.0742 22.8587 26.8686C23.5001 26.5962 23.959 26.2734 24.4404 25.7491C24.8967 25.2656 25.2481 24.6759 25.4681 24.0263C25.6569 23.4979 25.8807 22.7053 25.942 21.244C26.0083 19.6642 26.022 19.1902 26.022 15.1903C26.022 11.1904 26.0083 10.7165 25.942 9.1367C25.8807 7.67538 25.6569 6.88276 25.4681 6.35435C25.2181 5.65569 24.9217 5.15588 24.4404 4.63155C23.9964 4.13455 23.456 3.75205 22.8587 3.51207C22.3736 3.30642 21.6459 3.06264 20.3043 2.99591ZM12.99 19.8085C13.971 20.2534 15.0635 20.3134 16.0807 19.9784C17.0979 19.6434 17.9767 18.9341 18.5671 17.9716C19.1576 17.0092 19.4229 15.8534 19.3179 14.7015C19.2128 13.5497 18.7439 12.4733 17.9912 11.6562C17.5114 11.1339 16.9312 10.7339 16.2925 10.4852C15.6537 10.2364 14.9723 10.145 14.2972 10.2175C13.6221 10.29 12.9701 10.5247 12.3883 10.9046C11.8065 11.2845 11.3092 11.8002 10.9323 12.4146C10.5554 13.0289 10.3083 13.7267 10.2087 14.4576C10.109 15.1885 10.1594 15.9343 10.3562 16.6414C10.553 17.3486 10.8913 17.9994 11.3467 18.547C11.8021 19.0947 12.3633 19.5255 12.99 19.8085ZM9.74789 9.74547C10.4043 9.03044 11.1837 8.46325 12.0413 8.07627C12.899 7.6893 13.8183 7.49013 14.7467 7.49013C15.675 7.49013 16.5943 7.6893 17.452 8.07627C18.3097 8.46324 19.089 9.03044 19.7454 9.74547C20.4019 10.4605 20.9226 11.3094 21.2779 12.2436C21.6331 13.1778 21.816 14.1791 21.816 15.1903C21.816 16.2015 21.6331 17.2028 21.2779 18.1371C20.9226 19.0713 20.4019 19.9202 19.7454 20.6352C18.4197 22.0793 16.6216 22.8905 14.7467 22.8905C12.8718 22.8905 11.0736 22.0793 9.74789 20.6352C8.42214 19.1911 7.67734 17.2325 7.67734 15.1903C7.67734 13.1481 8.42214 11.1895 9.74789 9.74547ZM23.3838 8.63688C23.5465 8.46974 23.6767 8.26874 23.7668 8.04578C23.8569 7.82283 23.905 7.58246 23.9082 7.3389C23.9115 7.09534 23.8699 6.85355 23.7858 6.62783C23.7017 6.40211 23.5769 6.19706 23.4188 6.02482C23.2607 5.85258 23.0724 5.71665 22.8652 5.62507C22.658 5.5335 22.436 5.48815 22.2124 5.4917C21.9888 5.49525 21.7681 5.54763 21.5634 5.64575C21.3587 5.74386 21.1742 5.88571 21.0207 6.0629C20.7223 6.4075 20.5589 6.86522 20.5653 7.3389C20.5716 7.81258 20.7472 8.26492 21.0547 8.5999C21.3622 8.93488 21.7775 9.12611 22.2124 9.13302C22.6473 9.13993 23.0675 8.96195 23.3838 8.63688Z" fill="#ECB074"/>
</svg>
