<svg width="42" height="42" viewBox="0 0 42 42" fill="none" xmlns="http://www.w3.org/2000/svg">
<path d="M21 20.9998C27.3231 20.9998 32.4489 16.5227 32.4489 10.9999C32.4489 5.47711 27.3231 1 21 1C14.6769 1 9.55106 5.47711 9.55106 10.9999C9.55106 16.5227 14.6769 20.9998 21 20.9998Z" stroke="#ECB074" stroke-width="2"/>
<path d="M32.4489 25.0005H33.2549C34.929 25.0009 36.5452 25.5352 37.8 26.503C39.0548 27.4709 39.8618 28.8056 40.0693 30.2564L40.9647 36.5044C41.0452 37.0672 40.9877 37.6386 40.7961 38.1806C40.6045 38.7226 40.2831 39.2228 39.8533 39.6479C39.4234 40.0731 38.8949 40.4136 38.3029 40.6468C37.7109 40.8799 37.0689 41.0005 36.4194 41.0003H5.58057C4.93115 41.0005 4.28912 40.8799 3.6971 40.6468C3.10508 40.4136 2.5766 40.0731 2.14675 39.6479C1.7169 39.2228 1.3955 38.7226 1.20388 38.1806C1.01227 37.6386 0.954816 37.0672 1.03534 36.5044L1.92836 30.2564C2.13604 28.8049 2.94369 27.4696 4.19945 26.5017C5.4552 25.5338 7.07255 24.9999 8.74735 25.0005H9.55106" stroke="#ECB074" stroke-width="2" stroke-linecap="round" stroke-linejoin="round"/>
</svg>
