<svg width="30" height="22" viewBox="0 0 30 22" fill="none" xmlns="http://www.w3.org/2000/svg">
<path d="M29.5222 3.42103C29.3523 2.76082 29.0213 2.16311 28.5644 1.69142C28.0947 1.20523 27.5189 0.857442 26.8915 0.680892C24.5434 0.00675334 15.136 0.00675349 15.136 0.00675349C11.2142 -0.041849 7.29334 0.171917 3.39557 0.646844C2.76815 0.836438 2.19347 1.19199 1.72265 1.68189C1.26003 2.16672 0.924947 2.76459 0.749903 3.41966C0.329413 5.88707 0.12511 8.39241 0.139749 10.9019C0.124745 13.4092 0.328546 15.9137 0.749903 18.3842C0.921196 19.0365 1.25503 19.6317 1.7189 20.1124C2.18277 20.5932 2.76041 20.9405 3.39557 21.1243C5.77492 21.7971 15.136 21.7971 15.136 21.7971C19.0629 21.8458 22.9887 21.632 26.8915 21.157C27.5189 20.9804 28.0947 20.6327 28.5644 20.1465C29.0211 19.6749 29.3517 19.0771 29.5209 18.4169C29.9524 15.9504 30.1622 13.444 30.1473 10.9332C30.1798 8.41183 29.9703 5.89363 29.5222 3.41966V3.42103ZM12.1453 15.5651V6.24015L19.9723 10.9033L12.1453 15.5651Z" fill="#ECB074"/>
</svg>
