<svg width="35" height="34" viewBox="0 0 35 34" fill="none" xmlns="http://www.w3.org/2000/svg">
<path fill-rule="evenodd" clip-rule="evenodd" d="M29.2183 4.97036C27.6555 3.39014 25.7961 2.13714 23.7479 1.28397C21.6996 0.430792 19.5032 -0.00560689 17.2858 5.43829e-05C7.98787 5.43829e-05 0.418741 7.6018 0.414983 16.9459C0.414983 19.9322 1.19106 22.8468 2.66618 25.4179L0.274048 34.1975L9.21682 31.8398C11.6905 33.1925 14.4618 33.9018 17.2783 33.9031H17.2858C26.5818 33.9031 34.151 26.3013 34.1547 16.9572C34.1611 14.7307 33.7281 12.5249 32.8808 10.4674C32.0335 8.40998 30.7887 6.54162 29.2183 4.97036ZM17.2858 31.0432H17.2802C14.7687 31.0435 12.3035 30.3647 10.1432 29.0781L9.6321 28.7723L4.32545 30.1711L5.74043 24.9743L5.40783 24.4419C4.00372 22.1964 3.26042 19.5977 3.26374 16.9459C3.2675 9.17991 9.55694 2.8618 17.2914 2.8618C19.1334 2.85769 20.958 3.22062 22.6594 3.92958C24.3609 4.63854 25.9055 5.67945 27.2038 6.99208C28.5091 8.29844 29.5437 9.85174 30.2478 11.5622C30.9519 13.2726 31.3116 15.1063 31.306 16.9572C31.3022 24.7232 25.0128 31.0432 17.2858 31.0432ZM24.9771 20.4929C24.5543 20.2796 22.4835 19.2564 22.0964 19.1149C21.7111 18.9733 21.4312 18.9034 21.1493 19.3263C20.8674 19.7491 20.0594 20.7024 19.8132 20.9856C19.5671 21.2687 19.3209 21.3027 18.9 21.0913C18.479 20.8798 17.1204 20.4325 15.51 18.9903C14.2566 17.8671 13.411 16.4815 13.1649 16.0568C12.9187 15.6321 13.1386 15.4036 13.3509 15.1922C13.5407 15.0035 13.7718 14.6976 13.9823 14.4504C14.1927 14.2031 14.2623 14.0275 14.4032 13.7444C14.5441 13.4612 14.4746 13.2139 14.3675 13.0025C14.2623 12.7892 13.4185 10.7052 13.0672 9.8576C12.727 9.03645 12.3794 9.14594 12.1201 9.13461C11.8515 9.12357 11.5827 9.11854 11.3139 9.11951C11.1002 9.12498 10.8899 9.17475 10.6962 9.26571C10.5025 9.35666 10.3296 9.48683 10.1883 9.64806C9.80123 10.0728 8.71321 11.0959 8.71321 13.1799C8.71321 15.264 10.224 17.2781 10.4345 17.5613C10.645 17.8444 13.4073 22.1201 17.6353 23.9549C18.6425 24.391 19.428 24.6515 20.0387 24.8478C21.0478 25.1706 21.9667 25.1234 22.6939 25.0158C23.5038 24.895 25.1875 23.9927 25.5389 23.0035C25.8903 22.0144 25.8903 21.1668 25.7851 20.9893C25.6799 20.8119 25.3961 20.7043 24.9771 20.4929Z" fill="#ECB074"/>
</svg>
