<svg width="40" height="40" viewBox="0 0 40 40" fill="none" xmlns="http://www.w3.org/2000/svg">
<path d="M17.59 10.3999L11.9517 3.89155C11.3017 3.14155 10.11 3.14489 9.355 3.90155L4.71833 8.54655C3.33833 9.92822 2.94333 11.9799 3.74167 13.6249C8.51103 23.4998 16.4751 31.475 26.3433 36.2582C27.9867 37.0566 30.0367 36.6616 31.4167 35.2799L36.0967 30.5916C36.855 29.8332 36.8567 28.6349 36.1 27.9849L29.5667 22.3766C28.8833 21.7899 27.8217 21.8666 27.1367 22.5532L24.8633 24.8299C24.747 24.9519 24.5938 25.0323 24.4273 25.0588C24.2608 25.0853 24.0902 25.0564 23.9417 24.9766C20.2257 22.8367 17.1433 19.7503 15.0083 16.0316C14.9284 15.8828 14.8994 15.7119 14.9259 15.5451C14.9524 15.3784 15.0329 15.2249 15.155 15.1082L17.4217 12.8399C18.1083 12.1499 18.1833 11.0832 17.59 10.3982V10.3999Z" stroke="#ECB074" stroke-width="2" stroke-linecap="round" stroke-linejoin="round"/>
</svg>
