<svg width="36" height="36" viewBox="0 0 36 36" fill="none" xmlns="http://www.w3.org/2000/svg">
<path d="M15.59 8.39989L9.95167 1.89155C9.30167 1.14155 8.11 1.14489 7.355 1.90155L2.71833 6.54655C1.33833 7.92822 0.943334 9.97989 1.74167 11.6249C6.51103 21.4998 14.4751 29.475 24.3433 34.2582C25.9867 35.0566 28.0367 34.6616 29.4167 33.2799L34.0967 28.5916C34.855 27.8332 34.8567 26.6349 34.1 25.9849L27.5667 20.3766C26.8833 19.7899 25.8217 19.8666 25.1367 20.5532L22.8633 22.8299C22.747 22.9519 22.5938 23.0323 22.4273 23.0588C22.2608 23.0853 22.0902 23.0564 21.9417 22.9766C18.2257 20.8367 15.1433 17.7503 13.0083 14.0316C12.9284 13.8828 12.8994 13.7119 12.9259 13.5451C12.9524 13.3784 13.0329 13.2249 13.155 13.1082L15.4217 10.8399C16.1083 10.1499 16.1833 9.08322 15.59 8.39822V8.39989Z" stroke="#ECB074" stroke-width="2" stroke-linecap="round" stroke-linejoin="round"/>
</svg>
