<svg width="24" height="30" viewBox="0 0 24 30" fill="none" xmlns="http://www.w3.org/2000/svg">
<path d="M11.7868 0.0232544C8.74279 0.026823 5.82446 1.23005 3.672 3.36901C1.51955 5.50796 0.308718 8.40798 0.305127 11.4329C0.301481 13.9049 1.11404 16.3098 2.61817 18.2787C2.61817 18.2787 2.9313 18.6884 2.98245 18.7475L11.7868 29.066L20.5954 18.7423C20.6413 18.6874 20.9555 18.2787 20.9555 18.2787L20.9565 18.2756C22.4599 16.3075 23.2721 13.9038 23.2685 11.4329C23.2649 8.40798 22.0541 5.50796 19.9016 3.36901C17.7492 1.23005 14.8309 0.026823 11.7868 0.0232544ZM11.7868 15.5819C10.9611 15.5819 10.1538 15.3385 9.46723 14.8826C8.78063 14.4268 8.24549 13.7788 7.92948 13.0206C7.61347 12.2625 7.53079 11.4283 7.69189 10.6235C7.85299 9.81867 8.25063 9.07939 8.83454 8.49915C9.41845 7.9189 10.1624 7.52375 10.9723 7.36366C11.7822 7.20358 12.6217 7.28574 13.3846 7.59976C14.1475 7.91379 14.7996 8.44557 15.2583 9.12787C15.7171 9.81016 15.962 10.6123 15.962 11.4329C15.9606 12.5329 15.5203 13.5874 14.7376 14.3652C13.9549 15.1429 12.8937 15.5805 11.7868 15.5819Z" fill="#ECB074"/>
</svg>
